<svg width="18" height="18" viewBox="0 0 18 18" fill="none" xmlns="http://www.w3.org/2000/svg">
<path d="M3.54993 17.75H13.6037C14.6762 17.75 15.5449 16.88 15.5449 15.8075V7.6425C17.3037 7.51625 18.3399 5.5475 17.3887 4.01125L16.8449 3.13375C16.6319 2.78867 16.3341 2.50388 15.9798 2.30652C15.6256 2.10915 15.2267 2.00578 14.8212 2.00625H13.3512V1.4025C13.3515 1.25117 13.322 1.10125 13.2642 0.961358C13.2065 0.821463 13.1217 0.694337 13.0148 0.587268C12.9078 0.4802 12.7808 0.395294 12.641 0.337418C12.5011 0.279543 12.3513 0.249836 12.1999 0.250001C11.4752 0.250001 10.7802 0.537888 10.2678 1.05033C9.75531 1.56277 9.46742 2.2578 9.46742 2.9825V6.6525C8.09742 6.80625 7.05492 7.4675 6.28992 8.3875C5.42992 9.42 4.92742 10.7613 4.62742 12.0425C4.37084 13.1986 4.22435 14.3763 4.18992 15.56C4.17742 15.925 4.17743 16.245 4.17992 16.5H3.55118C3.15114 16.5 2.75981 16.3832 2.4253 16.1638C2.09078 15.9444 1.82767 15.6321 1.66832 15.2651C1.50896 14.8982 1.46029 14.4927 1.52831 14.0985C1.59633 13.7043 1.77807 13.3386 2.05117 13.0463L3.04742 11.9775C3.74909 11.225 4.13133 10.2295 4.1136 9.20082C4.09588 8.17209 3.6796 7.19039 2.95243 6.4625L1.97493 5.48375C1.91727 5.42406 1.84831 5.37644 1.77205 5.34369C1.6958 5.31093 1.61379 5.29369 1.5308 5.29297C1.44781 5.29225 1.36551 5.30806 1.2887 5.33949C1.21189 5.37091 1.14211 5.41732 1.08343 5.476C1.02475 5.53469 0.978337 5.60447 0.946911 5.68128C0.915486 5.75809 0.899672 5.84039 0.900393 5.92338C0.901115 6.00636 0.918356 6.08838 0.951112 6.16463C0.983867 6.24088 1.03148 6.30985 1.09117 6.3675L2.06993 7.34625C2.56838 7.84487 2.85376 8.51756 2.86589 9.22249C2.87801 9.92743 2.61594 10.6095 2.13492 11.125L1.13743 12.1938C0.698918 12.6642 0.407277 13.2525 0.298279 13.8864C0.189281 14.5202 0.267667 15.1721 0.52382 15.762C0.779973 16.352 1.20275 16.8544 1.7403 17.2075C2.27784 17.5606 2.90677 17.7492 3.54993 17.75ZM12.1012 1.50375V2.63125C12.1012 2.79701 12.167 2.95598 12.2842 3.07319C12.4014 3.1904 12.5604 3.25625 12.7262 3.25625H14.8212C15.2124 3.25625 15.5762 3.45875 15.7837 3.7925L16.3274 4.67C16.4341 4.84143 16.4929 5.03828 16.4978 5.24011C16.5026 5.44194 16.4534 5.6414 16.3552 5.8178C16.257 5.99419 16.1134 6.14109 15.9393 6.24324C15.7651 6.3454 15.5668 6.39909 15.3649 6.39875H14.9212C14.7554 6.39875 14.5964 6.4646 14.4792 6.58181C14.362 6.69902 14.2962 6.85799 14.2962 7.02375V15.8075C14.2962 15.9912 14.2232 16.1673 14.0933 16.2972C13.9635 16.427 13.7873 16.5 13.6037 16.5H12.9124V15.8075C12.9126 15.3795 12.8284 14.9556 12.6647 14.56C12.501 14.1645 12.261 13.8051 11.9584 13.5024C11.6558 13.1997 11.2965 12.9595 10.901 12.7957C10.5056 12.6318 10.0817 12.5475 9.65368 12.5475H8.55618C8.39041 12.5475 8.23144 12.6133 8.11423 12.7306C7.99702 12.8478 7.93118 13.0067 7.93118 13.1725C7.93118 13.3383 7.99702 13.4972 8.11423 13.6144C8.23144 13.7317 8.39041 13.7975 8.55618 13.7975H9.65368C10.7624 13.7975 11.6624 14.6975 11.6624 15.8075V16.5H5.42992C5.42618 16.2588 5.42742 15.9538 5.43867 15.6013C5.46868 14.6988 5.56992 13.5075 5.84492 12.3263C6.12242 11.1363 6.56617 10.0075 7.24992 9.1875C7.91367 8.39 8.81242 7.86875 10.0924 7.86875C10.2582 7.86875 10.4172 7.8029 10.5344 7.68569C10.6516 7.56848 10.7174 7.40951 10.7174 7.24375V2.9825C10.7174 2.1975 11.3287 1.55375 12.1012 1.50375Z" fill="#252B37"/>
</svg>
