<svg width="14" height="16" viewBox="0 0 14 16" fill="none" xmlns="http://www.w3.org/2000/svg">
<path d="M8.33329 1.33301H2.99996C2.64634 1.33301 2.3072 1.47348 2.05715 1.72353C1.8071 1.97358 1.66663 2.31272 1.66663 2.66634V13.333C1.66663 13.6866 1.8071 14.0258 2.05715 14.2758C2.3072 14.5259 2.64634 14.6663 2.99996 14.6663H11C11.3536 14.6663 11.6927 14.5259 11.9428 14.2758C12.1928 14.0258 12.3333 13.6866 12.3333 13.333V5.33301M8.33329 1.33301L12.3333 5.33301M8.33329 1.33301V5.33301H12.3333M9.66663 8.66634H4.33329M9.66663 11.333H4.33329M5.66663 5.99967H4.33329" stroke="#535862" stroke-width="1.5" stroke-linecap="round" stroke-linejoin="round"/>
</svg>
