<svg width="127" height="30" viewBox="0 0 127 30" fill="none" xmlns="http://www.w3.org/2000/svg">
<path d="M18.74 7.42C19.1133 7.47333 19.3667 7.58667 19.5 7.76C19.6467 7.93333 19.72 8.16 19.72 8.44C19.72 9.36 19.2267 9.78667 18.24 9.72L17.54 9.66C16.7533 9.59333 15.9667 9.54 15.18 9.5C14.4067 9.46 13.5933 9.44 12.74 9.44H11.84C11.68 11.4133 11.5133 13.2133 11.34 14.84L14.78 14.78C15.2733 14.78 15.6 14.8667 15.76 15.04C15.9333 15.2133 16.02 15.4467 16.02 15.74C16.02 16.1933 15.8867 16.5533 15.62 16.82C15.3533 17.0733 14.9733 17.2 14.48 17.2H11.06L10.94 18.06C10.66 20.26 10.06 21.8267 9.14 22.76C8.23333 23.6933 6.98 24.16 5.38 24.16C4.47333 24.16 3.64 23.9667 2.88 23.58C2.12 23.18 1.56 22.7 1.2 22.14C1.05333 21.9133 0.98 21.64 0.98 21.32C0.98 21 1.05333 20.72 1.2 20.48C1.36 20.24 1.55333 20.12 1.78 20.12C1.94 20.12 2.09333 20.1733 2.24 20.28C2.4 20.3867 2.6 20.5933 2.84 20.9C3.48 21.74 4.27333 22.16 5.22 22.16C5.98 22.16 6.61333 21.8533 7.12 21.24C7.64 20.6133 7.97333 19.6333 8.12 18.3L8.24 17.2H7.28C6.97333 17.2 6.70667 17.1133 6.48 16.94C6.26667 16.7667 6.16 16.52 6.16 16.2C6.16 15.7867 6.26667 15.4733 6.48 15.26C6.69333 15.0333 7.00667 14.92 7.42 14.92C7.79333 14.92 8.16 14.9133 8.52 14.9C8.68 13.4333 8.85333 11.6533 9.04 9.56C7.6 9.69333 6.58667 9.92667 6 10.26C5.41333 10.5933 5.12 11.0867 5.12 11.74C5.12 12.1933 5.25333 12.6267 5.52 13.04C5.6 13.16 5.64 13.28 5.64 13.4C5.64 13.64 5.50667 13.8533 5.24 14.04C4.97333 14.2133 4.67333 14.3 4.34 14.3C3.98 14.3 3.67333 14.1933 3.42 13.98C3.26 13.8467 3.10667 13.5733 2.96 13.16C2.81333 12.7467 2.74 12.2867 2.74 11.78C2.74 10.1267 3.58667 8.92667 5.28 8.18C6.98667 7.43333 9.47333 7.06 12.74 7.06C15.0067 7.06 17.0067 7.18 18.74 7.42ZM18.2383 24.1C17.6383 24.1 17.1449 23.8267 16.7583 23.28C16.3849 22.72 16.1983 22.0267 16.1983 21.2C16.1983 20.2 16.2649 19.2867 16.3983 18.46C16.5316 17.62 16.7516 16.7333 17.0583 15.8C17.1916 15.4 17.3783 15.1133 17.6183 14.94C17.8583 14.7667 18.2383 14.68 18.7583 14.68C19.0516 14.68 19.2516 14.7267 19.3583 14.82C19.4783 14.9133 19.5383 15.0533 19.5383 15.24C19.5383 15.3467 19.4649 15.7067 19.3183 16.32C19.1849 16.8133 19.0783 17.26 18.9983 17.66C18.7316 19.06 18.5983 19.9933 18.5983 20.46C18.5983 20.74 18.6316 20.94 18.6983 21.06C18.7649 21.1667 18.8716 21.22 19.0183 21.22C19.2183 21.22 19.4649 21.02 19.7583 20.62C20.0649 20.22 20.3849 19.6133 20.7183 18.8C21.0649 17.9867 21.3983 16.9867 21.7183 15.8C21.8249 15.4 21.9849 15.1133 22.1983 14.94C22.4249 14.7667 22.7583 14.68 23.1983 14.68C23.5049 14.68 23.7183 14.72 23.8383 14.8C23.9583 14.8667 24.0183 15 24.0183 15.2C24.0183 15.5333 23.8516 16.4467 23.5183 17.94C23.1449 19.6467 22.9583 20.7 22.9583 21.1C22.9583 21.3533 23.0116 21.5533 23.1183 21.7C23.2249 21.8333 23.3649 21.9 23.5383 21.9C23.8049 21.9 24.1183 21.74 24.4783 21.42C24.8516 21.0867 25.3449 20.5533 25.9583 19.82C26.1183 19.6333 26.2983 19.54 26.4983 19.54C26.6716 19.54 26.8049 19.62 26.8983 19.78C27.0049 19.94 27.0583 20.16 27.0583 20.44C27.0583 20.9733 26.9316 21.3867 26.6783 21.68C26.1049 22.3867 25.4849 22.9667 24.8183 23.42C24.1649 23.8733 23.4183 24.1 22.5783 24.1C21.9383 24.1 21.4649 23.8533 21.1583 23.36C20.8649 22.8667 20.7183 22.1733 20.7183 21.28C20.4916 22.1867 20.1516 22.8867 19.6983 23.38C19.2449 23.86 18.7583 24.1 18.2383 24.1ZM26.8566 24.1C26.3499 24.1 25.9899 23.8333 25.7766 23.3C25.5766 22.7667 25.4766 21.9133 25.4766 20.74C25.4766 19.0067 25.7232 17.36 26.2166 15.8C26.3366 15.4133 26.5299 15.1333 26.7966 14.96C27.0766 14.7733 27.4632 14.68 27.9566 14.68C28.2232 14.68 28.4099 14.7133 28.5166 14.78C28.6232 14.8467 28.6766 14.9733 28.6766 15.16C28.6766 15.3733 28.5766 15.8533 28.3766 16.6C28.2432 17.1333 28.1366 17.6 28.0566 18C27.9766 18.4 27.9099 18.8933 27.8566 19.48C28.2966 18.3333 28.7899 17.4 29.3366 16.68C29.8832 15.96 30.4166 15.4467 30.9366 15.14C31.4699 14.8333 31.9566 14.68 32.3966 14.68C33.2632 14.68 33.6966 15.1133 33.6966 15.98C33.6966 16.1533 33.6366 16.5733 33.5166 17.24C33.4099 17.7733 33.3566 18.1067 33.3566 18.24C33.3566 18.7067 33.5232 18.94 33.8566 18.94C34.2299 18.94 34.7099 18.6467 35.2966 18.06C35.4699 17.8867 35.6499 17.8 35.8366 17.8C36.0099 17.8 36.1432 17.88 36.2366 18.04C36.3432 18.1867 36.3966 18.3867 36.3966 18.64C36.3966 19.1333 36.2632 19.52 35.9966 19.8C35.6232 20.1867 35.1832 20.52 34.6766 20.8C34.1832 21.0667 33.6566 21.2 33.0966 21.2C32.3899 21.2 31.8499 21.02 31.4766 20.66C31.1166 20.3 30.9366 19.8133 30.9366 19.2C30.9366 19 30.9566 18.8 30.9966 18.6C31.0232 18.3333 31.0366 18.1533 31.0366 18.06C31.0366 17.8467 30.9632 17.74 30.8166 17.74C30.6166 17.74 30.3499 17.9667 30.0166 18.42C29.6966 18.86 29.3766 19.4467 29.0566 20.18C28.7366 20.9133 28.4766 21.6867 28.2766 22.5C28.1299 23.1267 27.9566 23.5533 27.7566 23.78C27.5699 23.9933 27.2699 24.1 26.8566 24.1ZM43.4581 19.54C43.6315 19.54 43.7648 19.62 43.8581 19.78C43.9648 19.94 44.0181 20.16 44.0181 20.44C44.0181 20.9733 43.8915 21.3867 43.6381 21.68C43.1448 22.28 42.4448 22.8333 41.5381 23.34C40.6448 23.8467 39.6848 24.1 38.6581 24.1C37.2581 24.1 36.1715 23.72 35.3981 22.96C34.6248 22.2 34.2381 21.16 34.2381 19.84C34.2381 18.92 34.4315 18.0667 34.8181 17.28C35.2048 16.48 35.7381 15.8467 36.4181 15.38C37.1115 14.9133 37.8915 14.68 38.7581 14.68C39.5315 14.68 40.1515 14.9133 40.6181 15.38C41.0848 15.8333 41.3181 16.4533 41.3181 17.24C41.3181 18.16 40.9848 18.9533 40.3181 19.62C39.6648 20.2733 38.5515 20.7933 36.9781 21.18C37.3115 21.7933 37.9448 22.1 38.8781 22.1C39.4781 22.1 40.1581 21.8933 40.9181 21.48C41.6915 21.0533 42.3581 20.5 42.9181 19.82C43.0781 19.6333 43.2581 19.54 43.4581 19.54ZM38.4181 16.64C37.9248 16.64 37.5048 16.9267 37.1581 17.5C36.8248 18.0733 36.6581 18.7667 36.6581 19.58V19.62C37.4448 19.4333 38.0648 19.1533 38.5181 18.78C38.9715 18.4067 39.1981 17.9733 39.1981 17.48C39.1981 17.2267 39.1248 17.0267 38.9781 16.88C38.8448 16.72 38.6581 16.64 38.4181 16.64ZM52.3873 17.92C52.4273 17.9067 52.494 17.9 52.5873 17.9C52.7873 17.9 52.9407 17.9667 53.0473 18.1C53.154 18.2333 53.2073 18.4133 53.2073 18.64C53.2073 19.0533 53.1273 19.38 52.9673 19.62C52.8073 19.8467 52.5673 20.0133 52.2473 20.12C51.634 20.32 50.9807 20.42 50.2873 20.42C49.7007 20.42 49.1473 20.34 48.6273 20.18C48.2407 20.8067 47.814 21.4533 47.3473 22.12C46.814 22.88 46.354 23.4 45.9673 23.68C45.5807 23.96 45.1407 24.1 44.6473 24.1C44.1007 24.1 43.6673 23.8867 43.3473 23.46C43.0407 23.0333 42.8473 22.36 42.7673 21.44C42.6073 19.5733 42.5273 17.94 42.5273 16.54V15.84C42.5407 15.4 42.6607 15.0933 42.8873 14.92C43.114 14.7467 43.454 14.66 43.9073 14.66C44.254 14.66 44.5073 14.74 44.6673 14.9C44.8407 15.0467 44.9273 15.3 44.9273 15.66C44.9273 17.1933 45.0207 19.1867 45.2073 21.64C46.0073 20.4533 46.6073 19.5067 47.0073 18.8C46.8073 18.4133 46.7073 17.9533 46.7073 17.42C46.7073 16.9667 46.8073 16.5267 47.0073 16.1C47.2073 15.6733 47.4807 15.3267 47.8273 15.06C48.174 14.7933 48.5673 14.66 49.0073 14.66C49.394 14.66 49.7073 14.8 49.9473 15.08C50.1873 15.3467 50.3073 15.74 50.3073 16.26C50.3073 16.86 50.1473 17.5467 49.8273 18.32C50.334 18.2933 51.0073 18.1933 51.8473 18.02L52.3873 17.92ZM60.3917 19.54C60.5651 19.54 60.6984 19.62 60.7917 19.78C60.8984 19.94 60.9517 20.16 60.9517 20.44C60.9517 20.9733 60.8251 21.3867 60.5717 21.68C60.0784 22.28 59.3784 22.8333 58.4717 23.34C57.5784 23.8467 56.6184 24.1 55.5917 24.1C54.1917 24.1 53.1051 23.72 52.3317 22.96C51.5584 22.2 51.1717 21.16 51.1717 19.84C51.1717 18.92 51.3651 18.0667 51.7517 17.28C52.1384 16.48 52.6717 15.8467 53.3517 15.38C54.0451 14.9133 54.8251 14.68 55.6917 14.68C56.4651 14.68 57.0851 14.9133 57.5517 15.38C58.0184 15.8333 58.2517 16.4533 58.2517 17.24C58.2517 18.16 57.9184 18.9533 57.2517 19.62C56.5984 20.2733 55.4851 20.7933 53.9117 21.18C54.2451 21.7933 54.8784 22.1 55.8117 22.1C56.4117 22.1 57.0917 21.8933 57.8517 21.48C58.6251 21.0533 59.2917 20.5 59.8517 19.82C60.0117 19.6333 60.1917 19.54 60.3917 19.54ZM55.3517 16.64C54.8584 16.64 54.4384 16.9267 54.0917 17.5C53.7584 18.0733 53.5917 18.7667 53.5917 19.58V19.62C54.3784 19.4333 54.9984 19.1533 55.4517 18.78C55.9051 18.4067 56.1317 17.9733 56.1317 17.48C56.1317 17.2267 56.0584 17.0267 55.9117 16.88C55.7784 16.72 55.5917 16.64 55.3517 16.64ZM67.4033 17.42C67.6966 17.42 67.9433 17.5267 68.1433 17.74C68.3566 17.94 68.4633 18.1933 68.4633 18.5C68.4633 18.6733 68.4233 18.86 68.3433 19.06C68.1299 19.5533 67.8299 19.9667 67.4433 20.3C67.0566 20.6333 66.6299 20.8 66.1633 20.8C65.7899 20.8 65.4699 20.6667 65.2033 20.4C64.9499 20.1333 64.8233 19.7733 64.8233 19.32C64.8233 19.0667 64.8366 18.7933 64.8633 18.5C64.8899 18.2867 64.9033 18.14 64.9033 18.06C64.9033 17.9533 64.8766 17.8733 64.8233 17.82C64.7833 17.7667 64.7299 17.74 64.6633 17.74C64.4766 17.74 64.2233 17.9667 63.9033 18.42C63.5833 18.86 63.2633 19.4467 62.9433 20.18C62.6233 20.9133 62.3633 21.6867 62.1633 22.5C62.0166 23.14 61.8499 23.5667 61.6633 23.78C61.4766 23.9933 61.1699 24.1 60.7433 24.1C60.2366 24.1 59.8766 23.8333 59.6633 23.3C59.4633 22.7667 59.3633 21.9133 59.3633 20.74C59.3633 19.0067 59.6099 17.36 60.1033 15.8C60.2233 15.4133 60.4166 15.1333 60.6833 14.96C60.9633 14.7733 61.3499 14.68 61.8433 14.68C62.1099 14.68 62.2966 14.7133 62.4033 14.78C62.5099 14.8467 62.5633 14.9733 62.5633 15.16C62.5633 15.3733 62.4633 15.8533 62.2633 16.6C62.1299 17.1333 62.0233 17.6 61.9433 18C61.8633 18.4 61.7966 18.8933 61.7433 19.48C62.1833 18.3333 62.6766 17.4 63.2233 16.68C63.7699 15.96 64.3033 15.4467 64.8233 15.14C65.3433 14.8333 65.8166 14.68 66.2433 14.68C66.6299 14.68 66.9233 14.7933 67.1233 15.02C67.3366 15.2333 67.4433 15.5533 67.4433 15.98C67.4433 16.2333 67.3699 16.7133 67.2233 17.42H67.4033ZM93.0386 19.54C93.2119 19.54 93.3453 19.62 93.4386 19.78C93.5453 19.94 93.5986 20.16 93.5986 20.44C93.5986 20.96 93.4719 21.3733 93.2186 21.68C91.8986 23.2933 90.4919 24.1 88.9986 24.1C87.7053 24.1 86.6719 23.6 85.8986 22.6C85.1253 21.6 84.7386 20.1667 84.7386 18.3C84.7386 17.8467 84.7586 17.3933 84.7986 16.94C83.9186 17.1 82.9586 17.22 81.9186 17.3C81.2253 17.3533 80.7519 17.3867 80.4986 17.4C80.2319 18.76 79.8586 20.4267 79.3786 22.4C79.0986 23.56 78.5653 24.14 77.7786 24.14C76.9253 24.14 76.4986 23.7533 76.4986 22.98C76.4986 22.8067 76.5319 22.5667 76.5986 22.26C77.0519 20.4333 77.4119 18.8867 77.6786 17.62L76.7186 17.66C76.2786 17.66 75.9586 17.5867 75.7586 17.44C75.5586 17.28 75.4586 17.0267 75.4586 16.68C75.4586 16.24 75.5853 15.92 75.8386 15.72C76.0919 15.5067 76.5119 15.3867 77.0986 15.36L78.1586 15.32C78.5053 13.44 78.6786 12.0067 78.6786 11.02C78.6786 10.3933 78.5853 9.96667 78.3986 9.74C78.2119 9.51333 77.9653 9.4 77.6586 9.4C76.7253 9.4 75.6719 10.18 74.4986 11.74C74.3253 11.9667 74.1319 12.08 73.9186 12.08C73.7319 12.08 73.5719 11.9933 73.4386 11.82C73.3053 11.6467 73.2386 11.4267 73.2386 11.16C73.2386 10.7467 73.4053 10.3067 73.7386 9.84C74.3253 9.02667 75.0653 8.36 75.9586 7.84C76.8519 7.30667 77.7586 7.04 78.6786 7.04C79.5453 7.04 80.2119 7.34 80.6786 7.94C81.1586 8.52667 81.3986 9.44667 81.3986 10.7C81.3986 11.8067 81.2386 13.3067 80.9186 15.2L82.8786 15.1C83.7186 15.06 84.4386 14.9933 85.0386 14.9C85.2786 13.4333 85.6453 12.06 86.1386 10.78C86.6319 9.5 87.2453 8.46 87.9786 7.66C88.7119 6.86 89.5319 6.46 90.4386 6.46C91.1053 6.46 91.6319 6.72667 92.0186 7.26C92.4053 7.78 92.5986 8.46667 92.5986 9.32C92.5986 12.6267 90.9119 14.92 87.5386 16.2C87.4986 16.7333 87.4786 17.2867 87.4786 17.86C87.4786 19.26 87.6519 20.2533 87.9986 20.84C88.3453 21.4267 88.8319 21.72 89.4586 21.72C90.0053 21.72 90.5053 21.58 90.9586 21.3C91.4119 21.0067 91.9253 20.5133 92.4986 19.82C92.6586 19.6333 92.8386 19.54 93.0386 19.54ZM90.3386 8.2C90.0453 8.2 89.7319 8.46667 89.3986 9C89.0786 9.53333 88.7719 10.26 88.4786 11.18C88.1853 12.1 87.9519 13.1067 87.7786 14.2C88.8453 13.76 89.6319 13.1333 90.1386 12.32C90.6453 11.5067 90.8986 10.46 90.8986 9.18C90.8986 8.87333 90.8453 8.63333 90.7386 8.46C90.6319 8.28667 90.4986 8.2 90.3386 8.2ZM104.777 17.86C104.951 17.86 105.084 17.9467 105.177 18.12C105.271 18.2933 105.317 18.5133 105.317 18.78C105.317 19.42 105.124 19.8 104.737 19.92C103.937 20.2 103.057 20.36 102.097 20.4C101.844 21.52 101.344 22.42 100.597 23.1C99.8505 23.7667 99.0039 24.1 98.0572 24.1C97.2572 24.1 96.5705 23.9067 95.9972 23.52C95.4372 23.1333 95.0105 22.62 94.7172 21.98C94.4239 21.34 94.2772 20.6467 94.2772 19.9C94.2772 18.8867 94.4705 17.9867 94.8572 17.2C95.2439 16.4 95.7772 15.78 96.4572 15.34C97.1372 14.8867 97.8905 14.66 98.7172 14.66C99.7305 14.66 100.544 15.0133 101.157 15.72C101.784 16.4133 102.151 17.2733 102.257 18.3C102.884 18.26 103.631 18.1267 104.497 17.9C104.604 17.8733 104.697 17.86 104.777 17.86ZM98.2172 21.98C98.6439 21.98 99.0105 21.8067 99.3172 21.46C99.6372 21.1133 99.8505 20.6133 99.9572 19.96C99.5439 19.68 99.2239 19.3133 98.9972 18.86C98.7839 18.4067 98.6772 17.9267 98.6772 17.42C98.6772 17.2067 98.6972 16.9933 98.7372 16.78H98.6372C98.1039 16.78 97.6572 17.04 97.2972 17.56C96.9505 18.0667 96.7772 18.7867 96.7772 19.72C96.7772 20.4533 96.9172 21.0133 97.1972 21.4C97.4905 21.7867 97.8305 21.98 98.2172 21.98ZM105.021 24.1C104.514 24.1 104.154 23.8333 103.941 23.3C103.741 22.7667 103.641 21.9133 103.641 20.74C103.641 19.0067 103.887 17.36 104.381 15.8C104.501 15.4133 104.694 15.1333 104.961 14.96C105.241 14.7733 105.627 14.68 106.121 14.68C106.387 14.68 106.574 14.7133 106.681 14.78C106.787 14.8467 106.841 14.9733 106.841 15.16C106.841 15.3733 106.741 15.8533 106.541 16.6C106.407 17.1333 106.301 17.6 106.221 18C106.141 18.3867 106.074 18.8733 106.021 19.46C106.381 18.42 106.807 17.54 107.301 16.82C107.807 16.1 108.321 15.5667 108.841 15.22C109.374 14.86 109.874 14.68 110.341 14.68C110.807 14.68 111.134 14.7867 111.321 15C111.521 15.2133 111.621 15.54 111.621 15.98C111.621 16.4067 111.494 17.18 111.241 18.3C111.134 18.78 111.061 19.14 111.021 19.38C111.687 17.74 112.427 16.5467 113.241 15.8C114.054 15.0533 114.814 14.68 115.521 14.68C116.387 14.68 116.821 15.1133 116.821 15.98C116.821 16.5 116.674 17.44 116.381 18.8C116.127 19.96 116.001 20.7267 116.001 21.1C116.001 21.6333 116.194 21.9 116.581 21.9C116.847 21.9 117.161 21.74 117.521 21.42C117.894 21.0867 118.387 20.5533 119.001 19.82C119.161 19.6333 119.341 19.54 119.541 19.54C119.714 19.54 119.847 19.62 119.941 19.78C120.047 19.94 120.101 20.16 120.101 20.44C120.101 20.9733 119.974 21.3867 119.721 21.68C119.147 22.3867 118.527 22.9667 117.861 23.42C117.207 23.8733 116.461 24.1 115.621 24.1C114.941 24.1 114.427 23.9067 114.081 23.52C113.734 23.12 113.561 22.5467 113.561 21.8C113.561 21.4267 113.654 20.76 113.841 19.8C114.014 18.96 114.101 18.38 114.101 18.06C114.101 17.8467 114.027 17.74 113.881 17.74C113.707 17.74 113.461 17.9667 113.141 18.42C112.821 18.86 112.501 19.4467 112.181 20.18C111.861 20.9133 111.601 21.6867 111.401 22.5C111.254 23.14 111.081 23.5667 110.881 23.78C110.694 23.9933 110.387 24.1 109.961 24.1C109.521 24.1 109.187 23.8933 108.961 23.48C108.747 23.0533 108.641 22.54 108.641 21.94C108.641 21.4333 108.707 20.7 108.841 19.74C108.947 18.8867 109.001 18.3267 109.001 18.06C109.001 17.8467 108.927 17.74 108.781 17.74C108.581 17.74 108.327 17.98 108.021 18.46C107.714 18.94 107.414 19.5533 107.121 20.3C106.841 21.0467 106.614 21.78 106.441 22.5C106.294 23.1267 106.121 23.5533 105.921 23.78C105.734 23.9933 105.434 24.1 105.021 24.1ZM125.643 20.14C125.817 20.14 125.95 20.22 126.043 20.38C126.15 20.54 126.203 20.76 126.203 21.04C126.203 21.52 126.09 21.9333 125.863 22.28C125.49 22.8533 124.997 23.3 124.383 23.62C123.783 23.94 123.063 24.1 122.223 24.1C120.943 24.1 119.95 23.72 119.243 22.96C118.537 22.1867 118.183 21.1467 118.183 19.84C118.183 18.92 118.377 18.0667 118.763 17.28C119.15 16.48 119.683 15.8467 120.363 15.38C121.057 14.9133 121.837 14.68 122.703 14.68C123.477 14.68 124.097 14.9133 124.563 15.38C125.03 15.8333 125.263 16.4533 125.263 17.24C125.263 18.16 124.93 18.9533 124.263 19.62C123.61 20.2733 122.49 20.7933 120.903 21.18C121.223 21.7933 121.763 22.1 122.523 22.1C123.07 22.1 123.517 21.9733 123.863 21.72C124.223 21.4667 124.637 21.04 125.103 20.44C125.263 20.24 125.443 20.14 125.643 20.14ZM122.363 16.64C121.87 16.64 121.45 16.9267 121.103 17.5C120.77 18.0733 120.603 18.7667 120.603 19.58V19.62C121.39 19.4333 122.01 19.1533 122.463 18.78C122.917 18.4067 123.143 17.9733 123.143 17.48C123.143 17.2267 123.07 17.0267 122.923 16.88C122.79 16.72 122.603 16.64 122.363 16.64Z" fill="#18181F"/>
</svg>
