<svg width="14" height="18" viewBox="0 0 14 18" fill="none" xmlns="http://www.w3.org/2000/svg">
<path d="M13 9.74985C13 13.4998 10.375 15.3748 7.255 16.4623C7.09162 16.5177 6.91415 16.5151 6.7525 16.4548C3.625 15.3748 1 13.4998 1 9.74985V4.49985C1 4.30094 1.07902 4.11017 1.21967 3.96952C1.36032 3.82887 1.55109 3.74985 1.75 3.74985C3.25 3.74985 5.125 2.84985 6.43 1.70985C6.58889 1.5741 6.79102 1.49951 7 1.49951C7.20898 1.49951 7.41111 1.5741 7.57 1.70985C8.8825 2.85735 10.75 3.74985 12.25 3.74985C12.4489 3.74985 12.6397 3.82887 12.7803 3.96952C12.921 4.11017 13 4.30094 13 4.49985V9.74985Z" stroke="#717680" stroke-width="1.5" stroke-linecap="round" stroke-linejoin="round"/>
</svg>
